<svg width="493" height="784" viewBox="0 0 493 784" fill="none" xmlns="http://www.w3.org/2000/svg">
<path opacity="0.3" d="M401.613 267.408C328.307 224.685 269.991 158.242 233.192 81.8451C220.897 56.3138 203.269 32.9332 178.015 17.136C87.1362 -39.7116 -13.2646 62.0265 -48.6319 133.5C-83.9991 204.974 -207.765 167.355 -277.044 240.902C-346.334 314.436 -170.174 409.618 -127.054 479.914C-102.142 520.516 -122.21 586.396 -21.9083 693.761C78.4042 801.114 194.92 837.56 277.387 654.478C359.866 471.408 530.86 466.27 485.456 342.893C472.186 306.831 429.448 283.639 401.613 267.408Z" fill="url(#paint0_linear_39_3517)"/>
<defs>
<linearGradient id="paint0_linear_39_3517" x1="-125.784" y1="567.079" x2="357.216" y2="177.478" gradientUnits="userSpaceOnUse">
<stop stop-color="white" stop-opacity="0"/>
<stop offset="0.9899" stop-color="#FBEDE5"/>
</linearGradient>
</defs>
</svg>
